<svg width="35" height="36" viewBox="0 0 35 36" fill="none" xmlns="http://www.w3.org/2000/svg">
<path d="M0 5.53846H35" stroke="black" stroke-width="2"/>
<path fill-rule="evenodd" clip-rule="evenodd" d="M6.86275 11.0769C9.8949 11.0769 12.3529 8.59727 12.3529 5.53846C12.3529 2.47965 9.8949 0 6.86275 0C3.83059 0 1.37255 2.47965 1.37255 5.53846C1.37255 8.59727 3.83059 11.0769 6.86275 11.0769ZM6.86275 8.30769C8.37882 8.30769 9.60784 7.06786 9.60784 5.53846C9.60784 4.00906 8.37882 2.76923 6.86275 2.76923C5.34667 2.76923 4.11765 4.00906 4.11765 5.53846C4.11765 7.06786 5.34667 8.30769 6.86275 8.30769Z" fill="black"/>
<path d="M0 18H35" stroke="black" stroke-width="2"/>
<path fill-rule="evenodd" clip-rule="evenodd" d="M17.8431 23.5385C20.8753 23.5385 23.3333 21.0588 23.3333 18C23.3333 14.9412 20.8753 12.4615 17.8431 12.4615C14.811 12.4615 12.3529 14.9412 12.3529 18C12.3529 21.0588 14.811 23.5385 17.8431 23.5385ZM17.8431 20.7692C19.3592 20.7692 20.5882 19.5294 20.5882 18C20.5882 16.4706 19.3592 15.2308 17.8431 15.2308C16.3271 15.2308 15.098 16.4706 15.098 18C15.098 19.5294 16.3271 20.7692 17.8431 20.7692Z" fill="black"/>
<path d="M0 30.4615H35" stroke="black" stroke-width="2"/>
<path fill-rule="evenodd" clip-rule="evenodd" d="M27.451 36C30.4831 36 32.9412 33.5203 32.9412 30.4615C32.9412 27.4027 30.4831 24.9231 27.451 24.9231C24.4188 24.9231 21.9608 27.4027 21.9608 30.4615C21.9608 33.5203 24.4188 36 27.451 36ZM27.451 33.2308C28.9671 33.2308 30.1961 31.9909 30.1961 30.4615C30.1961 28.9321 28.9671 27.6923 27.451 27.6923C25.9349 27.6923 24.7059 28.9321 24.7059 30.4615C24.7059 31.9909 25.9349 33.2308 27.451 33.2308Z" fill="black"/>
</svg>
