<svg width="56" height="56" viewBox="0 0 56 56" fill="none" xmlns="http://www.w3.org/2000/svg">
<path d="M27.7556 0.00112903C27.9348 -0.000435839 28.114 -0.000281198 28.2932 0.00159409L28 28.0001L27.7556 0.00112903Z" fill="#FF0000"/>
<path d="M28.2443 0.00112915C28.4235 0.00269276 28.6027 0.00597622 28.7818 0.0109794L28 28.0001L28.2443 0.00112915Z" fill="#FF0400"/>
<path d="M28.7329 0.00964355C28.9121 0.014334 29.0911 0.0207433 29.2701 0.0288716L28 28L28.7329 0.00964355Z" fill="#FF0900"/>
<path d="M29.2213 0.0267029C29.4003 0.034519 29.5793 0.0440535 29.7581 0.0553048L28 28.0001L29.2213 0.0267029Z" fill="#FF0D00"/>
<path d="M29.7093 0.0522766C29.8882 0.0632158 30.0669 0.075872 30.2455 0.0902427L28 28.0001L29.7093 0.0522766Z" fill="#FF1100"/>
<path d="M30.1968 0.0863647C30.3755 0.100424 30.554 0.116197 30.7323 0.133683L28 28.0001L30.1968 0.0863647Z" fill="#FF1500"/>
<path d="M30.6837 0.128967C30.862 0.146142 31.0402 0.165028 31.2182 0.185624L28 28.0001L30.6837 0.128967Z" fill="#FF1A00"/>
<path d="M31.1697 0.180054C31.3477 0.200338 31.5255 0.222331 31.7032 0.24603L28 28.0001L31.1697 0.180054Z" fill="#FF1E00"/>
<path d="M31.6547 0.239594C31.8324 0.262982 32.0098 0.288076 32.187 0.314871L28 28L31.6547 0.239594Z" fill="#FF2200"/>
<path d="M32.1386 0.307617C32.3159 0.334103 32.4928 0.362289 32.6695 0.392172L28 28.0001L32.1386 0.307617Z" fill="#FF2600"/>
<path d="M32.6213 0.384064C32.798 0.413638 32.9745 0.444909 33.1506 0.477871L28 28.0001L32.6213 0.384064Z" fill="#FF2B00"/>
<path d="M33.1026 0.468933C33.2788 0.501588 33.4546 0.535933 33.6302 0.571964L28 28.0001L33.1026 0.468933Z" fill="#FF2F00"/>
<path d="M33.5823 0.562164C33.7579 0.597889 33.9331 0.635298 34.108 0.674387L28 28.0001L33.5823 0.562164Z" fill="#FF3300"/>
<path d="M34.0603 0.663757C34.2352 0.702541 34.4098 0.743003 34.584 0.785138L28 28L34.0603 0.663757Z" fill="#FF3700"/>
<path d="M34.5364 0.773712C34.7107 0.815543 34.8845 0.859046 35.0579 0.904214L28 28.0001L34.5364 0.773712Z" fill="#FF3C00"/>
<path d="M35.0106 0.891907C35.1841 0.936772 35.3571 0.983301 35.5297 1.03149L28 28L35.0106 0.891907Z" fill="#FF4000"/>
<path d="M35.4827 1.0184C35.6553 1.06629 35.8275 1.11583 35.9993 1.16702L28 28.0001L35.4827 1.0184Z" fill="#FF4400"/>
<path d="M35.9524 1.15311C36.1242 1.204 36.2955 1.25654 36.4663 1.31072L28 28.0001L35.9524 1.15311Z" fill="#FF4800"/>
<path d="M36.4197 1.29599C36.5906 1.34987 36.761 1.4054 36.9308 1.46255L28 28.0001L36.4197 1.29599Z" fill="#FF4D00"/>
<path d="M36.8845 1.44699C37.0544 1.50385 37.2238 1.56234 37.3926 1.62244L28 28.0001L36.8845 1.44699Z" fill="#FF5100"/>
<path d="M37.3466 1.60608C37.5155 1.66589 37.6838 1.72733 37.8515 1.79037L28 28L37.3466 1.60608Z" fill="#FF5500"/>
<path d="M37.8058 1.77322C37.9736 1.83598 38.1409 1.90034 38.3075 1.9663L28 28L37.8058 1.77322Z" fill="#FF5900"/>
<path d="M38.262 1.94836C38.4287 2.01404 38.5948 2.08131 38.7602 2.15017L28 28.0001L38.262 1.94836Z" fill="#FF5E00"/>
<path d="M38.7151 2.13144C38.8807 2.20001 39.0455 2.27017 39.2098 2.34191L28 28.0001L38.7151 2.13144Z" fill="#FF6200"/>
<path d="M39.165 2.32239C39.3293 2.39384 39.4929 2.46687 39.6558 2.54146L28 28.0001L39.165 2.32239Z" fill="#FF6600"/>
<path d="M39.6114 2.52115C39.7744 2.59546 39.9368 2.67133 40.0984 2.74875L28 28.0001L39.6114 2.52115Z" fill="#FF6A00"/>
<path d="M40.0543 2.72766C40.216 2.8048 40.377 2.8835 40.5372 2.96373L28 28L40.0543 2.72766Z" fill="#FF6F00"/>
<path d="M40.4935 2.94189C40.6539 3.02185 40.8135 3.10334 40.9723 3.18636L28 28.0001L40.4935 2.94189Z" fill="#FF7300"/>
<path d="M40.9289 3.16376C41.0879 3.2465 41.246 3.33076 41.4033 3.41654L28 28.0001L40.9289 3.16376Z" fill="#FF7700"/>
<path d="M41.3604 3.39319C41.5179 3.47869 41.6745 3.5657 41.8303 3.65421L28 28.0001L41.3604 3.39319Z" fill="#FF7B00"/>
<path d="M41.7878 3.6301C41.9438 3.71833 42.0989 3.80807 42.2531 3.89928L28 28.0001L41.7878 3.6301Z" fill="#FF8000"/>
<path d="M42.2111 3.87445C42.3654 3.9654 42.519 4.05782 42.6716 4.15171L28 28.0001L42.2111 3.87445Z" fill="#FF8400"/>
<path d="M42.6299 4.12613C42.7827 4.21975 42.9346 4.31484 43.0856 4.41139L28 28.0001L42.6299 4.12613Z" fill="#FF8800"/>
<path d="M43.0444 4.3851C43.1955 4.48138 43.3457 4.5791 43.4949 4.67827L28 28.0001L43.0444 4.3851Z" fill="#FF8C00"/>
<path d="M43.4542 4.65125C43.6036 4.75015 43.7521 4.85048 43.8996 4.95223L28 28L43.4542 4.65125Z" fill="#FF9100"/>
<path d="M43.8594 4.92453C44.007 5.02602 44.1537 5.12893 44.2994 5.23324L28 28.0001L43.8594 4.92453Z" fill="#FF9500"/>
<path d="M44.2597 5.20483C44.4055 5.30889 44.5504 5.41434 44.6943 5.52118L28 28.0001L44.2597 5.20483Z" fill="#FF9900"/>
<path d="M44.655 5.49207C44.7991 5.59865 44.9421 5.70662 45.084 5.81595L28 28.0001L44.655 5.49207Z" fill="#FF9D00"/>
<path d="M45.0453 5.78616C45.1875 5.89525 45.3286 6.00569 45.4686 6.11748L28 28.0001L45.0453 5.78616Z" fill="#FFA200"/>
<path d="M45.4304 6.08704C45.5706 6.19858 45.7098 6.31148 45.8478 6.4257L28 28.0001L45.4304 6.08704Z" fill="#FFA600"/>
<path d="M45.8102 6.39456C45.9484 6.50854 46.0856 6.62384 46.2217 6.74046L28 28.0001L45.8102 6.39456Z" fill="#FFAA00"/>
<path d="M46.1845 6.70868C46.3208 6.82505 46.4559 6.94273 46.5899 7.0617L28 28L46.1845 6.70868Z" fill="#FFAE00"/>
<path d="M46.5533 7.0293C46.6875 7.14803 46.8206 7.26805 46.9525 7.38934L28 28.0001L46.5533 7.0293Z" fill="#FFB300"/>
<path d="M46.9165 7.35629C47.0486 7.47735 47.1796 7.59967 47.3093 7.72325L28 28.0001L46.9165 7.35629Z" fill="#FFB700"/>
<path d="M47.2739 7.68958C47.4039 7.81292 47.5327 7.93751 47.6603 8.06333L28 28.0001L47.2739 7.68958Z" fill="#FFBB00"/>
<path d="M47.2739 7.68958C47.4039 7.81292 47.5327 7.93751 47.6603 8.06333L28 28.0001L47.2739 7.68958Z" fill="#FFBB00"/>
<path d="M47.6254 8.02905C47.7532 8.15465 47.8798 8.28147 48.0052 8.40949L28 28.0001L47.6254 8.02905Z" fill="#FFBF00"/>
<path d="M47.971 8.3746C48.0966 8.50241 48.221 8.63142 48.3441 8.76161L28 28.0001L47.971 8.3746Z" fill="#FFC400"/>
<path d="M48.3105 8.72614C48.4338 8.85611 48.5559 8.98727 48.6767 9.1196L28 28.0001L48.3105 8.72614Z" fill="#FFC800"/>
<path d="M48.6437 9.08353C48.7648 9.21564 48.8846 9.34891 49.0031 9.48332L28 28.0001L48.6437 9.08353Z" fill="#FFCC00"/>
<path d="M48.9707 9.44669C49.0895 9.58089 49.2069 9.71623 49.323 9.85269L28 28L48.9707 9.44669Z" fill="#FFD000"/>
<path d="M49.2913 9.81552C49.4077 9.95178 49.5228 10.0891 49.6365 10.2276L28 28.0001L49.2913 9.81552Z" fill="#FFD500"/>
<path d="M49.6055 10.1899C49.7194 10.3281 49.8321 10.4675 49.9434 10.6079L28 28.0001L49.6055 10.1899Z" fill="#FFD900"/>
<path d="M49.913 10.5696C50.0246 10.7099 50.1348 10.8512 50.2436 10.9935L28 28.0001L49.913 10.5696Z" fill="#FFDD00"/>
<path d="M50.2139 10.9547C50.323 11.0969 50.4307 11.2401 50.537 11.3843L28 28.0001L50.2139 10.9547Z" fill="#FFE100"/>
<path d="M50.508 11.345C50.6146 11.4891 50.7198 11.6341 50.8236 11.7802L28 28.0001L50.508 11.345Z" fill="#FFE600"/>
<path d="M50.7952 11.7404C50.8993 11.8862 51.0019 12.0331 51.1032 12.181L28 28L50.7952 11.7404Z" fill="#FFEA00"/>
<path d="M51.0755 12.1407C51.177 12.2884 51.2771 12.437 51.3757 12.5866L28 28.0001L51.0755 12.1407Z" fill="#FFEE00"/>
<path d="M51.3488 12.5458C51.4477 12.6952 51.5451 12.8456 51.6412 12.9969L28 28L51.3488 12.5458Z" fill="#FFF200"/>
<path d="M51.6149 12.9557C51.7112 13.1068 51.806 13.2588 51.8994 13.4118L28 28L51.6149 12.9557Z" fill="#FFF700"/>
<path d="M51.8739 13.3701C51.9675 13.5229 52.0597 13.6765 52.1504 13.8311L28 28L51.8739 13.3701Z" fill="#FFFB00"/>
<path d="M52.1256 13.789C52.2165 13.9434 52.306 14.0986 52.394 14.2547L28 28L52.1256 13.789Z" fill="#FFFF00"/>
<path d="M52.3699 14.2122C52.4582 14.3681 52.5449 14.5249 52.6301 14.6826L28 28L52.3699 14.2122Z" fill="#FBFF00"/>
<path d="M52.6069 14.6396C52.6924 14.7971 52.7763 14.9554 52.8588 15.1145L28 28.0001L52.6069 14.6396Z" fill="#F7FF00"/>
<path d="M52.8363 15.0711C52.919 15.23 53.0002 15.3898 53.0799 15.5503L28 28.0001L52.8363 15.0711Z" fill="#F2FF00"/>
<path d="M53.0581 15.5065C53.1381 15.6669 53.2165 15.828 53.2934 15.9899L28 28.0001L53.0581 15.5065Z" fill="#EEFF00"/>
<path d="M53.2724 15.9457C53.3495 16.1075 53.4251 16.2699 53.4991 16.4331L28 28.0001L53.2724 15.9457Z" fill="#EAFF00"/>
<path d="M53.4789 16.3886C53.5532 16.5517 53.6259 16.7155 53.6971 16.8799L28 28.0001L53.4789 16.3886Z" fill="#E6FF00"/>
<path d="M53.6777 16.8351C53.7491 16.9994 53.819 17.1644 53.8873 17.3301L28 28.0001L53.6777 16.8351Z" fill="#E1FF00"/>
<path d="M53.8686 17.2849C53.9372 17.4505 54.0042 17.6167 54.0695 17.7835L28 28L53.8686 17.2849Z" fill="#DDFF00"/>
<path d="M54.0517 17.738C54.1173 17.9047 54.1814 18.0721 54.2439 18.24L28 28L54.0517 17.738Z" fill="#D9FF00"/>
<path d="M54.2268 18.1942C54.2895 18.3621 54.3507 18.5305 54.4102 18.6995L28 28.0001L54.2268 18.1942Z" fill="#D5FF00"/>
<path d="M54.3939 18.6535C54.4538 18.8224 54.5119 18.9919 54.5685 19.1619L28 28.0001L54.3939 18.6535Z" fill="#D0FF00"/>
<path d="M54.553 19.1155C54.6099 19.2855 54.6651 19.4559 54.7187 19.6269L28 28.0001L54.553 19.1155Z" fill="#CCFF00"/>
<path d="M54.7041 19.5803C54.7579 19.7512 54.8102 19.9226 54.8608 20.0945L28 28.0001L54.7041 19.5803Z" fill="#C8FF00"/>
<path d="M54.8469 20.0476C54.8978 20.2194 54.9471 20.3917 54.9946 20.5645L28 28.0001L54.8469 20.0476Z" fill="#C4FF00"/>
<path d="M54.9816 20.5174C55.0295 20.6901 55.0757 20.8632 55.1203 21.0368L28 28.0001L54.9816 20.5174Z" fill="#BFFF00"/>
<path d="M55.1081 20.9894C55.153 21.1629 55.1962 21.3368 55.2377 21.5111L28 28L55.1081 20.9894Z" fill="#BBFF00"/>
<path d="M55.2263 21.4636C55.2682 21.6378 55.3083 21.8125 55.3468 21.9875L28 28.0001L55.2263 21.4636Z" fill="#B7FF00"/>
<path d="M55.3363 21.9398C55.375 22.1147 55.4122 22.29 55.4476 22.4657L28 28.0001L55.3363 21.9398Z" fill="#B3FF00"/>
<path d="M55.4379 22.4178C55.4736 22.5933 55.5076 22.7693 55.54 22.9455L28 28.0001L55.4379 22.4178Z" fill="#AEFF00"/>
<path d="M55.5311 22.8975C55.5638 23.0736 55.5947 23.2501 55.624 23.4269L28 28.0001L55.5311 22.8975Z" fill="#AAFF00"/>
<path d="M55.616 23.3787C55.6456 23.5555 55.6734 23.7325 55.6996 23.9097L28 28.0001L55.616 23.3787Z" fill="#A6FF00"/>
<path d="M55.6924 23.8614C55.7189 24.0386 55.7437 24.2161 55.7668 24.3938L28 28.0001L55.6924 23.8614Z" fill="#A2FF00"/>
<path d="M55.7604 24.3453C55.7838 24.523 55.8055 24.7008 55.8255 24.8789L28 28L55.7604 24.3453Z" fill="#9EFF00"/>
<path d="M55.82 24.8304C55.8403 25.0084 55.8588 25.1866 55.8757 25.365L28 28L55.82 24.8304Z" fill="#99FF00"/>
<path d="M55.8711 25.3164C55.8882 25.4947 55.9037 25.6733 55.9175 25.8519L28 28.0001L55.8711 25.3164Z" fill="#95FF00"/>
<path d="M55.9137 25.8032C55.9277 25.9818 55.9401 26.1606 55.9507 26.3395L28 28L55.9137 25.8032Z" fill="#91FF00"/>
<path d="M55.9478 26.2907C55.9587 26.4696 55.9679 26.6485 55.9754 26.8276L28 28.0001L55.9478 26.2907Z" fill="#8CFF00"/>
<path d="M55.9733 26.7787C55.9811 26.9577 55.9872 27.1368 55.9916 27.316L28 28.0001L55.9733 26.7787Z" fill="#88FF00"/>
<path d="M55.9904 27.2671C55.9951 27.4462 55.998 27.6254 55.9993 27.8046L28 28L55.9904 27.2671Z" fill="#84FF00"/>
<path d="M55.9989 27.7557C56.0005 27.9349 56.0004 28.1141 55.9985 28.2933L28 28L55.9989 27.7557Z" fill="#80FF00"/>
<path d="M55.9989 28.2444C55.9974 28.4236 55.9941 28.6027 55.9891 28.7819L28 28.0001L55.9989 28.2444Z" fill="#7BFF00"/>
<path d="M55.9904 28.733C55.9857 28.9121 55.9793 29.0912 55.9712 29.2702L28 28.0001L55.9904 28.733Z" fill="#77FF00"/>
<path d="M55.9733 29.2214C55.9655 29.4004 55.956 29.5794 55.9447 29.7582L28 28.0001L55.9733 29.2214Z" fill="#73FF00"/>
<path d="M55.9477 29.7094C55.9368 29.8883 55.9242 30.067 55.9098 30.2456L28 28.0001L55.9477 29.7094Z" fill="#6FFF00"/>
<path d="M55.9137 30.1969C55.8996 30.3756 55.8838 30.554 55.8663 30.7324L28 28.0001L55.9137 30.1969Z" fill="#6AFF00"/>
<path d="M55.8711 30.6837C55.8539 30.8621 55.835 31.0403 55.8144 31.2183L28 28.0001L55.8711 30.6837Z" fill="#66FF00"/>
<path d="M55.82 31.1698C55.7997 31.3478 55.7777 31.5256 55.754 31.7032L28 28.0001L55.82 31.1698Z" fill="#62FF00"/>
<path d="M55.7604 31.6548C55.737 31.8325 55.712 32.0099 55.6852 32.1871L28 28.0001L55.7604 31.6548Z" fill="#5EFF00"/>
<path d="M55.6924 32.1387C55.6659 32.3159 55.6378 32.4929 55.6079 32.6696L28 28.0001L55.6924 32.1387Z" fill="#59FF00"/>
<path d="M55.616 32.6214C55.5864 32.7981 55.5551 32.9746 55.5222 33.1507L28 28.0001L55.616 32.6214Z" fill="#55FF00"/>
<path d="M55.5311 33.1027C55.4985 33.2788 55.4641 33.4547 55.4281 33.6302L28 28.0001L55.5311 33.1027Z" fill="#51FF00"/>
<path d="M55.4379 33.5824C55.4021 33.758 55.3647 33.9332 55.3256 34.1081L28 28.0001L55.4379 33.5824Z" fill="#4DFF00"/>
<path d="M55.3363 34.0604C55.2975 34.2353 55.257 34.4099 55.2149 34.584L28 28.0001L55.3363 34.0604Z" fill="#48FF00"/>
<path d="M55.2263 34.5365C55.1845 34.7108 55.141 34.8846 55.0958 35.058L28 28.0001L55.2263 34.5365Z" fill="#44FF00"/>
<path d="M55.1081 35.0107C55.0632 35.1842 55.0167 35.3572 54.9685 35.5298L28 28.0001L55.1081 35.0107Z" fill="#40FF00"/>
<path d="M54.9816 35.4827C54.9337 35.6554 54.8842 35.8276 54.833 35.9993L28 28.0001L54.9816 35.4827Z" fill="#3CFF00"/>
<path d="M54.8469 35.9525C54.796 36.1243 54.7435 36.2956 54.6893 36.4664L28 28.0001L54.8469 35.9525Z" fill="#37FF00"/>
<path d="M54.704 36.4198C54.6502 36.5907 54.5946 36.7611 54.5375 36.9309L28 28.0001L54.704 36.4198Z" fill="#33FF00"/>
<path d="M54.553 36.8846C54.4962 37.0545 54.4377 37.2239 54.3776 37.3927L28 28.0001L54.553 36.8846Z" fill="#2FFF00"/>
<path d="M54.3939 37.3467C54.3341 37.5156 54.2727 37.6839 54.2096 37.8516L28 28.0001L54.3939 37.3467Z" fill="#2BFF00"/>
<path d="M54.2268 37.8059C54.164 37.9737 54.0997 38.1409 54.0337 38.3075L28 28.0001L54.2268 37.8059Z" fill="#26FF00"/>
<path d="M54.0517 38.2621C53.986 38.4288 53.9187 38.5949 53.8499 38.7603L28 28.0001L54.0517 38.2621Z" fill="#22FF00"/>
<path d="M53.8686 38.7152C53.8 38.8807 53.7299 39.0456 53.6581 39.2098L28 28.0001L53.8686 38.7152Z" fill="#1EFF00"/>
<path d="M53.6777 39.165C53.6062 39.3294 53.5332 39.493 53.4586 39.6559L28 28.0001L53.6777 39.165Z" fill="#1AFF00"/>
<path d="M53.4789 39.6115C53.4046 39.7745 53.3287 39.9369 53.2513 40.0985L28 28.0001L53.4789 39.6115Z" fill="#15FF00"/>
<path d="M53.2724 40.0544C53.1952 40.2161 53.1165 40.3771 53.0363 40.5373L28 28.0001L53.2724 40.0544Z" fill="#11FF00"/>
<path d="M53.0581 40.4936C52.9782 40.654 52.8967 40.8136 52.8137 40.9723L28 28.0001L53.0581 40.4936Z" fill="#0DFF00"/>
<path d="M52.8363 40.929C52.7535 41.088 52.6693 41.2461 52.5835 41.4034L28 28.0001L52.8363 40.929Z" fill="#09FF00"/>
<path d="M52.6069 41.3605C52.5214 41.518 52.4343 41.6746 52.3458 41.8304L28 28.0001L52.6069 41.3605Z" fill="#04FF00"/>
<path d="M52.3699 41.7879C52.2817 41.9439 52.192 42.099 52.1008 42.2532L28 28.0001L52.3699 41.7879Z" fill="#00FF00"/>
<path d="M52.1256 42.2111C52.0346 42.3655 51.9422 42.519 51.8483 42.6717L28 28.0001L52.1256 42.2111Z" fill="#00FF04"/>
<path d="M51.8739 42.63C51.7803 42.7828 51.6852 42.9347 51.5886 43.0856L28 28.0001L51.8739 42.63Z" fill="#00FF09"/>
<path d="M51.6149 43.0445C51.5187 43.1956 51.4209 43.3458 51.3218 43.495L28 28.0001L51.6149 43.0445Z" fill="#00FF0D"/>
<path d="M51.3488 43.4543C51.2499 43.6037 51.1495 43.7522 51.0478 43.8997L28 28.0001L51.3488 43.4543Z" fill="#00FF11"/>
<path d="M51.0755 43.8594C50.974 44.0071 50.8711 44.1538 50.7668 44.2995L28 28.0001L51.0755 43.8594Z" fill="#00FF15"/>
<path d="M50.7952 44.2597C50.6912 44.4056 50.5857 44.5505 50.4789 44.6944L28 28.0001L50.7952 44.2597Z" fill="#00FF1A"/>
<path d="M50.508 44.6551C50.4014 44.7991 50.2934 44.9422 50.1841 45.0841L28 28.0001L50.508 44.6551Z" fill="#00FF1E"/>
<path d="M50.2139 45.0454C50.1048 45.1875 49.9943 45.3286 49.8825 45.4687L28 28.0001L50.2139 45.0454Z" fill="#00FF22"/>
<path d="M49.913 45.4305C49.8015 45.5707 49.6886 45.7099 49.5744 45.8479L28 28.0001L49.913 45.4305Z" fill="#00FF26"/>
<path d="M49.6055 45.8103C49.4915 45.9485 49.3762 46.0857 49.2596 46.2217L28 28.0001L49.6055 45.8103Z" fill="#00FF2B"/>
<path d="M49.2913 46.1846C49.175 46.3209 49.0573 46.456 48.9383 46.59L28 28.0001L49.2913 46.1846Z" fill="#00FF2F"/>
<path d="M48.9707 46.5534C48.852 46.6876 48.732 46.8207 48.6107 46.9526L28 28.0001L48.9707 46.5534Z" fill="#00FF33"/>
<path d="M48.6437 46.9166C48.5227 47.0487 48.4004 47.1796 48.2768 47.3094L28 28.0001L48.6437 46.9166Z" fill="#00FF37"/>
<path d="M48.3105 47.274C48.1871 47.404 48.0625 47.5328 47.9367 47.6603L28 28.0001L48.3105 47.274Z" fill="#00FF3C"/>
<path d="M47.971 47.6255C47.8454 47.7533 47.7186 47.8799 47.5905 48.0053L28 28.0001L47.971 47.6255Z" fill="#00FF40"/>
<path d="M47.6254 47.9711C47.4976 48.0967 47.3686 48.221 47.2384 48.3442L28 28.0001L47.6254 47.9711Z" fill="#00FF44"/>
<path d="M47.2739 48.3105C47.1439 48.4339 47.0128 48.556 46.8804 48.6768L28 28.0001L47.2739 48.3105Z" fill="#00FF48"/>
<path d="M46.9165 48.6438C46.7844 48.7649 46.6511 48.8847 46.5167 49.0032L28 28.0001L46.9165 48.6438Z" fill="#00FF4D"/>
<path d="M46.5533 48.9708C46.4191 49.0896 46.2838 49.207 46.1473 49.3231L28 28.0001L46.5533 48.9708Z" fill="#00FF51"/>
<path d="M46.1845 49.2914C46.0483 49.4078 45.9109 49.5229 45.7724 49.6366L28 28.0001L46.1845 49.2914Z" fill="#00FF55"/>
<path d="M45.8102 49.6055C45.6719 49.7195 45.5325 49.8322 45.3921 49.9435L28 28.0001L45.8102 49.6055Z" fill="#00FF59"/>
<path d="M45.4304 49.9131C45.2902 50.0246 45.1489 50.1348 45.0065 50.2437L28 28.0001L45.4304 49.9131Z" fill="#00FF5E"/>
<path d="M45.0453 50.214C44.9031 50.323 44.7599 50.4307 44.6157 50.5371L28 28.0001L45.0453 50.214Z" fill="#00FF62"/>
<path d="M44.655 50.5081C44.511 50.6146 44.3659 50.7198 44.2199 50.8236L28 28.0001L44.655 50.5081Z" fill="#00FF66"/>
<path d="M44.2597 50.7953C44.1138 50.8993 43.9669 51.002 43.8191 51.1032L28 28.0001L44.2597 50.7953Z" fill="#00FF6A"/>
<path d="M43.8594 51.0756C43.7117 51.1771 43.563 51.2772 43.4134 51.3758L28 28.0001L43.8594 51.0756Z" fill="#00FF6F"/>
<path d="M43.4542 51.3489C43.3048 51.4478 43.1544 51.5452 43.0031 51.6412L28 28.0001L43.4542 51.3489Z" fill="#00FF73"/>
<path d="M43.0444 51.615C42.8932 51.7113 42.7412 51.8061 42.5882 51.8995L28 28.0001L43.0444 51.615Z" fill="#00FF77"/>
<path d="M42.6299 51.874C42.4772 51.9676 42.3235 52.0598 42.1689 52.1504L28 28.0001L42.6299 51.874Z" fill="#00FF7B"/>
<path d="M42.2111 52.1257C42.0567 52.2166 41.9014 52.3061 41.7453 52.394L28 28.0001L42.2111 52.1257Z" fill="#00FF80"/>
<path d="M41.7878 52.37C41.6319 52.4583 41.4751 52.545 41.3175 52.6302L28 28.0001L41.7878 52.37Z" fill="#00FF84"/>
<path d="M41.3604 52.6069C41.2029 52.6924 41.0447 52.7764 40.8856 52.8589L28 28.0001L41.3604 52.6069Z" fill="#00FF88"/>
<path d="M40.9289 52.8364C40.77 52.9191 40.6103 53.0003 40.4498 53.08L28 28.0001L40.9289 52.8364Z" fill="#00FF8C"/>
<path d="M40.4935 53.0582C40.3332 53.1382 40.172 53.2166 40.0102 53.2935L28 28.0001L40.4935 53.0582Z" fill="#00FF91"/>
<path d="M40.0543 53.2725C39.8926 53.3496 39.7301 53.4252 39.5669 53.4992L28 28.0001L40.0543 53.2725Z" fill="#00FF95"/>
<path d="M39.6114 53.479C39.4483 53.5533 39.2846 53.626 39.1201 53.6972L28 28.0001L39.6114 53.479Z" fill="#00FF99"/>
<path d="M39.1649 53.6777C39.0006 53.7492 38.8356 53.8191 38.6699 53.8874L28 28.0001L39.1649 53.6777Z" fill="#00FF9D"/>
<path d="M38.7151 53.8687C38.5496 53.9373 38.3834 54.0042 38.2165 54.0696L28 28.0001L38.7151 53.8687Z" fill="#00FFA2"/>
<path d="M38.262 54.0518C38.0953 54.1174 37.9279 54.1815 37.76 54.244L28 28.0001L38.262 54.0518Z" fill="#00FFA6"/>
<path d="M37.8058 54.2269C37.6379 54.2896 37.4695 54.3508 37.3005 54.4103L28 28.0001L37.8058 54.2269Z" fill="#00FFAA"/>
<path d="M37.3466 54.394C37.1777 54.4538 37.0082 54.512 36.8382 54.5686L28 28.0001L37.3466 54.394Z" fill="#00FFAE"/>
<path d="M36.8845 54.5531C36.7146 54.61 36.5441 54.6652 36.3731 54.7188L28 28.0001L36.8845 54.5531Z" fill="#00FFB3"/>
<path d="M36.4197 54.7041C36.2488 54.758 36.0774 54.8103 35.9055 54.8609L28 28.0001L36.4197 54.7041Z" fill="#00FFB7"/>
<path d="M35.9524 54.847C35.7806 54.8979 35.6083 54.9471 35.4356 54.9947L28 28.0001L35.9524 54.847Z" fill="#00FFBB"/>
<path d="M35.4827 54.9817C35.31 55.0296 35.1369 55.0758 34.9633 55.1204L28 28.0001L35.4827 54.9817Z" fill="#00FFBF"/>
<path d="M35.0106 55.1082C34.8371 55.1531 34.6632 55.1963 34.4889 55.2378L28 28.0001L35.0106 55.1082Z" fill="#00FFC4"/>
<path d="M34.5364 55.2264C34.3622 55.2682 34.1876 55.3084 34.0126 55.3469L28 28.0001L34.5364 55.2264Z" fill="#00FFC8"/>
<path d="M34.0603 55.3364C33.8853 55.3751 33.71 55.4122 33.5344 55.4477L28 28.0001L34.0603 55.3364Z" fill="#00FFCC"/>
<path d="M33.5823 55.438C33.4067 55.4737 33.2308 55.5077 33.0545 55.5401L28 28.0001L33.5823 55.438Z" fill="#00FFD0"/>
<path d="M33.1026 55.5312C32.9264 55.5639 32.7499 55.5948 32.5731 55.6241L28 28.0001L33.1026 55.5312Z" fill="#00FFD5"/>
<path d="M32.6213 55.6161C32.4446 55.6456 32.2676 55.6735 32.0903 55.6997L28 28.0001L32.6213 55.6161Z" fill="#00FFD9"/>
<path d="M32.1386 55.6925C31.9614 55.719 31.7839 55.7438 31.6063 55.7669L28 28.0001L32.1386 55.6925Z" fill="#00FFDD"/>
<path d="M31.6547 55.7605C31.4771 55.7839 31.2992 55.8056 31.1211 55.8256L28 28.0001L31.6547 55.7605Z" fill="#00FFE1"/>
<path d="M31.1697 55.8201C30.9916 55.8404 30.8134 55.8589 30.635 55.8758L28 28.0001L31.1697 55.8201Z" fill="#00FFE6"/>
<path d="M30.6837 55.8712C30.5053 55.8883 30.3268 55.9038 30.1481 55.9175L28 28.0001L30.6837 55.8712Z" fill="#00FFEA"/>
<path d="M30.1968 55.9137C30.0182 55.9278 29.8394 55.9401 29.6606 55.9508L28 28.0001L30.1968 55.9137Z" fill="#00FFEE"/>
<path d="M29.7093 55.9478C29.5305 55.9588 29.3515 55.968 29.1725 55.9755L28 28.0001L29.7093 55.9478Z" fill="#00FFF2"/>
<path d="M29.2213 55.9734C29.0423 55.9812 28.8632 55.9873 28.6841 55.9917L28 28.0001L29.2213 55.9734Z" fill="#00FFF7"/>
<path d="M28.7329 55.9905C28.5538 55.9952 28.3746 55.9981 28.1955 55.9994L28 28.0001L28.7329 55.9905Z" fill="#00FFFB"/>
<path d="M28.2443 55.999C28.0651 56.0006 27.8859 56.0004 27.7068 55.9986L28 28.0001L28.2443 55.999Z" fill="#00FFFF"/>
<path d="M27.7556 55.999C27.5765 55.9974 27.3973 55.9941 27.2182 55.9891L28 28.0001L27.7556 55.999Z" fill="#00FBFF"/>
<path d="M27.267 55.9904C27.0879 55.9858 26.9088 55.9793 26.7298 55.9712L28 28L27.267 55.9904Z" fill="#00F7FF"/>
<path d="M26.7786 55.9734C26.5996 55.9656 26.4207 55.9561 26.2418 55.9448L28 28.0001L26.7786 55.9734Z" fill="#00F2FF"/>
<path d="M26.2906 55.9478C26.1118 55.9369 25.933 55.9242 25.7544 55.9099L28 28.0001L26.2906 55.9478Z" fill="#00EEFF"/>
<path d="M25.8031 55.9137C25.6245 55.8997 25.446 55.8839 25.2677 55.8664L28 28.0001L25.8031 55.9137Z" fill="#00EAFF"/>
<path d="M25.3163 55.8712C25.1379 55.854 24.9597 55.8351 24.7817 55.8145L28 28.0001L25.3163 55.8712Z" fill="#00E6FF"/>
<path d="M24.8303 55.8201C24.6522 55.7998 24.4744 55.7778 24.2968 55.7541L28 28.0001L24.8303 55.8201Z" fill="#00E1FF"/>
<path d="M24.3452 55.7605C24.1676 55.7371 23.9902 55.712 23.813 55.6852L28 28.0001L24.3452 55.7605Z" fill="#00DDFF"/>
<path d="M23.8613 55.6925C23.6841 55.666 23.5071 55.6378 23.3305 55.608L28 28.0001L23.8613 55.6925Z" fill="#00D9FF"/>
<path d="M23.3786 55.6161C23.2019 55.5865 23.0255 55.5552 22.8493 55.5223L28 28.0001L23.3786 55.6161Z" fill="#00D5FF"/>
<path d="M22.8974 55.5312C22.7212 55.4985 22.5453 55.4642 22.3698 55.4282L28 28.0001L22.8974 55.5312Z" fill="#00D0FF"/>
<path d="M22.4177 55.438C22.2421 55.4022 22.0668 55.3648 21.892 55.3257L28 28.0001L22.4177 55.438Z" fill="#00CCFF"/>
<path d="M21.9397 55.3364C21.7647 55.2976 21.5902 55.2571 21.416 55.215L28 28.0001L21.9397 55.3364Z" fill="#00C8FF"/>
<path d="M21.4635 55.2264C21.2893 55.1846 21.1154 55.1411 20.942 55.0959L28 28.0001L21.4635 55.2264Z" fill="#00C4FF"/>
<path d="M20.9893 55.1082C20.8159 55.0633 20.6428 55.0168 20.4702 54.9686L28 28.0001L20.9893 55.1082Z" fill="#00BFFF"/>
<path d="M20.5173 54.9817C20.3446 54.9338 20.1724 54.8843 20.0007 54.8331L28 28.0001L20.5173 54.9817Z" fill="#00BBFF"/>
<path d="M20.0476 54.847C19.8757 54.7961 19.7044 54.7436 19.5336 54.6894L28 28.0001L20.0476 54.847Z" fill="#00B7FF"/>
<path d="M19.5802 54.7041C19.4093 54.6502 19.2389 54.5947 19.0691 54.5376L28 28.0001L19.5802 54.7041Z" fill="#00B3FF"/>
<path d="M19.1154 54.5531C18.9455 54.4963 18.7761 54.4378 18.6073 54.3777L28 28.0001L19.1154 54.5531Z" fill="#00AEFF"/>
<path d="M18.6534 54.394C18.4845 54.3342 18.3161 54.2728 18.1484 54.2097L28 28.0001L18.6534 54.394Z" fill="#00AAFF"/>
<path d="M18.1942 54.2269C18.0263 54.1641 17.8591 54.0998 17.6925 54.0338L28 28.0001L18.1942 54.2269Z" fill="#00A6FF"/>
<path d="M17.7379 54.0518C17.5712 53.9861 17.4051 53.9188 17.2397 53.8499L28 28.0001L17.7379 54.0518Z" fill="#00A2FF"/>
<path d="M17.2848 53.8687C17.1193 53.8001 16.9544 53.73 16.7902 53.6582L28 28.0001L17.2848 53.8687Z" fill="#009DFF"/>
<path d="M16.835 53.6777C16.6707 53.6063 16.507 53.5333 16.3441 53.4587L28 28.0001L16.835 53.6777Z" fill="#0099FF"/>
<path d="M16.3886 53.479C16.2255 53.4047 16.0632 53.3288 15.9016 53.2514L28 28.0001L16.3886 53.479Z" fill="#0095FF"/>
<path d="M15.9457 53.2725C15.7839 53.1953 15.6229 53.1166 15.4627 53.0364L28 28.0001L15.9457 53.2725Z" fill="#0091FF"/>
<path d="M15.5064 53.0582C15.3461 52.9783 15.1865 52.8968 15.0277 52.8138L28 28.0001L15.5064 53.0582Z" fill="#008CFF"/>
<path d="M15.071 52.8364C14.9121 52.7536 14.7539 52.6694 14.5966 52.5836L28 28.0001L15.071 52.8364Z" fill="#0088FF"/>
<path d="M14.6395 52.6069C14.4821 52.5214 14.3254 52.4344 14.1696 52.3459L28 28.0001L14.6395 52.6069Z" fill="#0084FF"/>
<path d="M14.2121 52.37C14.0562 52.2818 13.9011 52.1921 13.7468 52.1008L28 28.0001L14.2121 52.37Z" fill="#0080FF"/>
<path d="M13.7889 52.1257C13.6345 52.0347 13.481 51.9423 13.3284 51.8484L28 28.0001L13.7889 52.1257Z" fill="#007BFF"/>
<path d="M13.37 51.874C13.2172 51.7804 13.0654 51.6853 12.9144 51.5887L28 28.0001L13.37 51.874Z" fill="#0077FF"/>
<path d="M12.9556 51.615C12.8045 51.5187 12.6543 51.421 12.505 51.3219L28 28.0001L12.9556 51.615Z" fill="#0072FF"/>
<path d="M12.5457 51.3489C12.3963 51.25 12.2478 51.1496 12.1004 51.0479L28 28.0001L12.5457 51.3489Z" fill="#006FFF"/>
<path d="M12.1406 51.0756C11.9929 50.9741 11.8462 50.8712 11.7005 50.7669L28 28.0001L12.1406 51.0756Z" fill="#006AFF"/>
<path d="M11.7403 50.7953C11.5944 50.6912 11.4495 50.5858 11.3057 50.479L28 28.0001L11.7403 50.7953Z" fill="#0066FF"/>
<path d="M11.3449 50.5081C11.2009 50.4015 11.0579 50.2935 10.9159 50.1842L28 28.0001L11.3449 50.5081Z" fill="#0062FF"/>
<path d="M10.9547 50.214C10.8125 50.1049 10.6714 49.9944 10.5313 49.8826L28 28.0001L10.9547 50.214Z" fill="#005EFF"/>
<path d="M10.5696 49.9131C10.4293 49.8015 10.2902 49.6887 10.1521 49.5744L28 28.0001L10.5696 49.9131Z" fill="#0059FF"/>
<path d="M10.1898 49.6056C10.0515 49.4916 9.91435 49.3763 9.7783 49.2597L28 28.0001L10.1898 49.6056Z" fill="#0055FF"/>
<path d="M9.81543 49.2914C9.67918 49.1751 9.54404 49.0574 9.41004 48.9384L28 28.0001L9.81543 49.2914Z" fill="#0051FF"/>
<path d="M9.44662 48.9708C9.31241 48.8521 9.17935 48.7321 9.04745 48.6108L28 28.0001L9.44662 48.9708Z" fill="#004DFF"/>
<path d="M9.08345 48.6438C8.95134 48.5228 8.82039 48.4004 8.69063 48.2769L28 28.0001L9.08345 48.6438Z" fill="#0048FF"/>
<path d="M8.72605 48.3105C8.59607 48.1872 8.46728 48.0626 8.33969 47.9368L28 28.0001L8.72605 48.3105Z" fill="#0044FF"/>
<path d="M8.37452 47.9711C8.24671 47.8455 8.12011 47.7187 7.99474 47.5906L28 28.0001L8.37452 47.9711Z" fill="#0040FF"/>
<path d="M8.02896 47.6255C7.90337 47.4977 7.779 47.3687 7.65588 47.2385L28 28.0001L8.02896 47.6255Z" fill="#003CFF"/>
<path d="M7.68949 47.274C7.56615 47.144 7.44405 47.0128 7.32323 46.8805L28 28.0001L7.68949 47.274Z" fill="#0037FF"/>
<path d="M7.35621 46.9166C7.23515 46.7845 7.11537 46.6512 6.99687 46.5168L28 28.0001L7.35621 46.9166Z" fill="#0033FF"/>
<path d="M7.02922 46.5534C6.91048 46.4192 6.79304 46.2839 6.6769 46.1474L28 28.0001L7.02922 46.5534Z" fill="#002FFF"/>
<path d="M6.70861 46.1846C6.59224 46.0484 6.47717 45.911 6.36344 45.7725L28 28.0001L6.70861 46.1846Z" fill="#002BFF"/>
<path d="M6.39449 45.8103C6.28051 45.672 6.16786 45.5326 6.05656 45.3922L28 28.0001L6.39449 45.8103Z" fill="#0026FF"/>
<path d="M6.08695 45.4305C5.9754 45.2902 5.8652 45.1489 5.75637 45.0066L28 28.0001L6.08695 45.4305Z" fill="#0022FF"/>
<path d="M5.78608 45.0454C5.677 44.9032 5.56929 44.76 5.46295 44.6158L28 28.0001L5.78608 45.0454Z" fill="#001EFF"/>
<path d="M5.49199 44.6551C5.3854 44.5111 5.2802 44.366 5.1764 44.2199L28 28.0001L5.49199 44.6551Z" fill="#001AFF"/>
<path d="M5.20474 44.2597C5.10069 44.1139 4.99803 43.967 4.8968 43.8191L28 28.0001L5.20474 44.2597Z" fill="#0015FF"/>
<path d="M4.92444 43.8594C4.82295 43.7118 4.72288 43.5631 4.62424 43.4135L28 28.0001L4.92444 43.8594Z" fill="#0011FF"/>
<path d="M4.65117 43.4543C4.55227 43.3049 4.45481 43.1545 4.3588 43.0032L28 28.0001L4.65117 43.4543Z" fill="#000DFF"/>
<path d="M4.38502 43.0445C4.28874 42.8933 4.19391 42.7413 4.10056 42.5883L28 28.0001L4.38502 43.0445Z" fill="#0009FF"/>
<path d="M4.12605 42.63C4.03243 42.4772 3.94027 42.3236 3.84959 42.169L28 28.0001L4.12605 42.63Z" fill="#0004FF"/>
<path d="M3.87436 42.2111C3.78342 42.0567 3.69395 41.9015 3.60599 41.7454L28 28.0001L3.87436 42.2111Z" fill="#0000FF"/>
<path d="M3.63002 41.7879C3.54178 41.632 3.45504 41.4752 3.36982 41.3175L28 28.0001L3.63002 41.7879Z" fill="#0400FF"/>
<path d="M3.3931 41.3605C3.3076 41.203 3.22361 41.0447 3.14115 40.8857L28 28.0001L3.3931 41.3605Z" fill="#0900FF"/>
<path d="M3.16367 40.929C3.08093 40.7701 2.99972 40.6103 2.92005 40.4498L28 28.0001L3.16367 40.929Z" fill="#0D00FF"/>
<path d="M2.94181 40.4936C2.86186 40.3332 2.78345 40.1721 2.70659 40.0102L28 28.0001L2.94181 40.4936Z" fill="#1100FF"/>
<path d="M2.72759 40.0544C2.65045 39.8926 2.57486 39.7302 2.50084 39.567L28 28.0001L2.72759 40.0544Z" fill="#1500FF"/>
<path d="M2.52106 39.6115C2.44675 39.4484 2.37401 39.2847 2.30285 39.1202L28 28.0001L2.52106 39.6115Z" fill="#1A00FF"/>
<path d="M2.32229 39.165C2.25084 39.0007 2.18097 38.8357 2.11269 38.67L28 28.0001L2.32229 39.165Z" fill="#1E00FF"/>
<path d="M2.13135 38.7152C2.06278 38.5497 1.9958 38.3834 1.93041 38.2166L28 28.0001L2.13135 38.7152Z" fill="#2200FF"/>
<path d="M1.94828 38.2621C1.88261 38.0954 1.81854 37.928 1.75608 37.7601L28 28.0001L1.94828 38.2621Z" fill="#2600FF"/>
<path d="M1.77316 37.8059C1.7104 37.638 1.64926 37.4696 1.58974 37.3006L28 28.0001L1.77316 37.8059Z" fill="#2B00FF"/>
<path d="M1.60602 37.3467C1.5462 37.1777 1.48801 37.0083 1.43145 36.8382L28 28.0001L1.60602 37.3467Z" fill="#2F00FF"/>
<path d="M1.44692 36.8846C1.39006 36.7147 1.33483 36.5442 1.28125 36.3732L28 28.0001L1.44692 36.8846Z" fill="#3300FF"/>
<path d="M1.2959 36.4198C1.24202 36.2489 1.18978 36.0775 1.13918 35.9056L28 28.0001L1.2959 36.4198Z" fill="#3700FF"/>
<path d="M1.15302 35.9525C1.10213 35.7807 1.05289 35.6084 1.00531 35.4356L28 28.0001L1.15302 35.9525Z" fill="#3C00FF"/>
<path d="M1.01832 35.4827C0.970439 35.3101 0.924211 35.1369 0.879649 34.9634L28 28.0001L1.01832 35.4827Z" fill="#4000FF"/>
<path d="M0.891843 35.0107C0.846978 34.8372 0.803779 34.6633 0.762253 34.489L28 28.0001L0.891843 35.0107Z" fill="#4400FF"/>
<path d="M0.773619 34.5365C0.731789 34.3623 0.691631 34.1877 0.653153 34.0127L28 28.0001L0.773619 34.5365Z" fill="#4800FF"/>
<path d="M0.663689 34.0604C0.624906 33.8854 0.587802 33.7101 0.552384 33.5345L28 28.0001L0.663689 34.0604Z" fill="#4D00FF"/>
<path d="M0.562086 33.5824C0.526361 33.4068 0.492323 33.2308 0.459976 33.0546L28 28.0001L0.562086 33.5824Z" fill="#5100FF"/>
<path d="M0.46884 33.1027C0.436185 32.9265 0.405223 32.75 0.375957 32.5732L28 28.0001L0.46884 33.1027Z" fill="#5500FF"/>
<path d="M0.38398 32.6214C0.354406 32.4447 0.326528 32.2677 0.300352 32.0904L28 28.0001L0.38398 32.6214Z" fill="#5900FF"/>
<path d="M0.307533 32.1387C0.281047 31.9615 0.256263 31.784 0.233185 31.6063L28 28.0001L0.307533 32.1387Z" fill="#5E00FF"/>
<path d="M0.239521 31.6548C0.216132 31.4771 0.19445 31.2993 0.174476 31.1212L28 28.0001L0.239521 31.6548Z" fill="#6200FF"/>
<path d="M0.179966 31.1697C0.159681 30.9917 0.141106 30.8135 0.124243 30.6351L28 28.0001L0.179966 31.1697Z" fill="#6600FF"/>
<path d="M0.128884 30.6837C0.11171 30.5054 0.0962477 30.3269 0.0825005 30.1482L28 28.0001L0.128884 30.6837Z" fill="#6A00FF"/>
<path d="M0.086292 30.1969C0.072233 30.0183 0.0598891 29.8395 0.049262 29.6606L28 28.0001L0.086292 30.1969Z" fill="#6F00FF"/>
<path d="M0.052203 29.7094C0.0412638 29.5306 0.0320417 29.3516 0.024538 29.1726L28 28.0001L0.052203 29.7094Z" fill="#7300FF"/>
<path d="M0.0266276 29.2214C0.0188115 29.0424 0.012714 28.8633 0.00833607 28.6842L28 28.0001L0.0266276 29.2214Z" fill="#7700FF"/>
<path d="M0.00957251 28.733C0.00488191 28.5539 0.00191092 28.3747 0.000659943 28.1955L28 28.0001L0.00957251 28.733Z" fill="#7B00FF"/>
<path d="M0.00104327 28.2444C-0.000520429 28.0652 -0.000364057 27.886 0.00151237 27.7068L28 28.0001L0.00104327 28.2444Z" fill="#8000FF"/>
<path d="M0.00104332 27.7557C0.00260701 27.5765 0.0058907 27.3974 0.0108939 27.2183L28 28.0001L0.00104332 27.7557Z" fill="#8400FF"/>
<path d="M0.00957203 27.2671C0.0142626 27.088 0.0206726 26.9089 0.0288012 26.7299L28 28.0001L0.00957203 27.2671Z" fill="#8800FF"/>
<path d="M0.0266275 26.7787C0.0344436 26.5997 0.043978 26.4207 0.0552293 26.2419L28 28L0.0266275 26.7787Z" fill="#8C00FF"/>
<path d="M0.0522032 26.2907C0.0631424 26.1118 0.0757982 25.9331 0.0901689 25.7545L28 28.0001L0.0522032 26.2907Z" fill="#9100FF"/>
<path d="M0.0862923 25.8032C0.100351 25.6246 0.116125 25.4461 0.13361 25.2677L28 28.0001L0.0862923 25.8032Z" fill="#9500FF"/>
<path d="M0.128884 25.3164C0.146059 25.138 0.164945 24.9598 0.18554 24.7818L28 28L0.128884 25.3164Z" fill="#9900FF"/>
<path d="M0.179966 24.8304C0.200251 24.6523 0.222244 24.4745 0.245943 24.2969L28 28.0001L0.179966 24.8304Z" fill="#9D00FF"/>
<path d="M0.239521 24.3453C0.26291 24.1677 0.288004 23.9902 0.314799 23.813L28 28L0.239521 24.3453Z" fill="#A200FF"/>
<path d="M0.307533 23.8614C0.334019 23.6842 0.362206 23.5072 0.392089 23.3305L28 28.0001L0.307533 23.8614Z" fill="#A600FF"/>
<path d="M0.383981 23.3787C0.413555 23.202 0.444826 23.0256 0.477788 22.8494L28 28.0001L0.383981 23.3787Z" fill="#AA00FF"/>
<path d="M0.46884 22.8975C0.501494 22.7213 0.535839 22.5454 0.57187 22.3699L28 28.0001L0.46884 22.8975Z" fill="#AE00FF"/>
<path d="M0.562086 22.4177C0.597811 22.2421 0.63522 22.0669 0.674308 21.892L28 28L0.562086 22.4177Z" fill="#B300FF"/>
<path d="M0.66369 21.9397C0.702473 21.7648 0.742935 21.5902 0.78507 21.4161L28 28.0001L0.66369 21.9397Z" fill="#B700FF"/>
<path d="M0.77362 21.4636C0.81545 21.2893 0.858953 21.1155 0.904121 20.9421L28 28.0001L0.77362 21.4636Z" fill="#BB00FF"/>
<path d="M0.891844 20.9894C0.936709 20.8159 0.983238 20.6429 1.03143 20.4703L28 28.0001L0.891844 20.9894Z" fill="#BF00FF"/>
<path d="M1.01833 20.5174C1.06621 20.3447 1.11575 20.1725 1.16695 20.0008L28 28.0001L1.01833 20.5174Z" fill="#C400FF"/>
<path d="M1.15302 20.0476C1.20392 19.8758 1.25646 19.7045 1.31064 19.5337L28 28L1.15302 20.0476Z" fill="#C800FF"/>
<path d="M1.2959 19.5803C1.34979 19.4094 1.40531 19.239 1.46246 19.0692L28 28L1.2959 19.5803Z" fill="#CC00FF"/>
<path d="M1.44691 19.1155C1.50377 18.9456 1.56226 18.7762 1.62237 18.6074L28 28.0001L1.44691 19.1155Z" fill="#D000FF"/>
<path d="M1.60602 18.6535C1.66583 18.4846 1.72726 18.3162 1.79031 18.1485L28 28.0001L1.60602 18.6535Z" fill="#D500FF"/>
<path d="M1.77316 18.1942C1.83591 18.0264 1.90027 17.8592 1.96624 17.6926L28 28.0001L1.77316 18.1942Z" fill="#D900FF"/>
<path d="M1.94829 17.738C2.01396 17.5713 2.08123 17.4052 2.15009 17.2398L28 28L1.94829 17.738Z" fill="#DD00FF"/>
<path d="M2.13135 17.2849C2.19992 17.1194 2.27008 16.9545 2.34182 16.7903L28 28.0001L2.13135 17.2849Z" fill="#E100FF"/>
<path d="M2.3223 16.8351C2.39375 16.6707 2.46677 16.5071 2.54137 16.3442L28 28L2.3223 16.8351Z" fill="#E600FF"/>
<path d="M2.52106 16.3886C2.59537 16.2256 2.67124 16.0632 2.74867 15.9016L28 28L2.52106 16.3886Z" fill="#EA00FF"/>
<path d="M2.72759 15.9457C2.80473 15.784 2.88342 15.623 2.96366 15.4628L28 28.0001L2.72759 15.9457Z" fill="#EE00FF"/>
<path d="M2.94182 15.5065C3.02177 15.3462 3.10326 15.1866 3.18628 15.0278L28 28.0001L2.94182 15.5065Z" fill="#F200FF"/>
<path d="M3.16367 15.0711C3.24641 14.9121 3.33068 14.754 3.41645 14.5967L28 28.0001L3.16367 15.0711Z" fill="#F700FF"/>
<path d="M3.3931 14.6396C3.4786 14.4821 3.56561 14.3255 3.65412 14.1697L28 28L3.3931 14.6396Z" fill="#FB00FF"/>
<path d="M3.63002 14.2122C3.71825 14.0562 3.80799 13.9011 3.8992 13.7469L28 28L3.63002 14.2122Z" fill="#FF00FF"/>
<path d="M3.87436 13.789C3.96531 13.6346 4.05773 13.4811 4.15162 13.3285L28 28.0001L3.87436 13.789Z" fill="#FF00FB"/>
<path d="M4.12605 13.3701C4.21968 13.2173 4.31477 13.0654 4.41131 12.9145L28 28L4.12605 13.3701Z" fill="#FF00F7"/>
<path d="M4.38502 12.9557C4.4813 12.8045 4.57902 12.6543 4.67818 12.5051L28 28.0001L4.38502 12.9557Z" fill="#FF00F2"/>
<path d="M4.65117 12.5458C4.75008 12.3964 4.85041 12.2479 4.95216 12.1004L28 28.0001L4.65117 12.5458Z" fill="#FF00EE"/>
<path d="M4.92444 12.1407C5.02594 11.993 5.12885 11.8463 5.23316 11.7006L28 28.0001L4.92444 12.1407Z" fill="#FF00EA"/>
<path d="M5.20474 11.7404C5.3088 11.5945 5.41425 11.4496 5.52109 11.3058L28 28.0001L5.20474 11.7404Z" fill="#FF00E6"/>
<path d="M5.49199 11.345C5.59857 11.201 5.70654 11.058 5.81587 10.916L28 28.0001L5.49199 11.345Z" fill="#FF00E1"/>
<path d="M5.78608 10.9547C5.89517 10.8126 6.00561 10.6715 6.1174 10.5314L28 28.0001L5.78608 10.9547Z" fill="#FF00DD"/>
<path d="M6.08695 10.5697C6.1985 10.4294 6.31139 10.2903 6.42561 10.1522L28 28.0001L6.08695 10.5697Z" fill="#FF00D9"/>
<path d="M6.39449 10.1899C6.50847 10.0516 6.62377 9.91443 6.74038 9.77838L28 28.0001L6.39449 10.1899Z" fill="#FF00D5"/>
<path d="M6.70861 9.81552C6.82498 9.67926 6.94266 9.54412 7.06163 9.41013L28 28.0001L6.70861 9.81552Z" fill="#FF00D0"/>
<path d="M7.02922 9.44668C7.14795 9.31248 7.26797 9.17942 7.38926 9.04752L28 28L7.02922 9.44668Z" fill="#FF00CC"/>
<path d="M7.35621 9.08352C7.47727 8.95141 7.59959 8.82047 7.72317 8.6907L28 28.0001L7.35621 9.08352Z" fill="#FF00C8"/>
<path d="M7.6895 8.72614C7.81284 8.59616 7.93743 8.46737 8.06325 8.33978L28 28.0001L7.6895 8.72614Z" fill="#FF00C4"/>
<path d="M8.02896 8.37459C8.15456 8.24678 8.28138 8.12018 8.4094 7.99481L28 28L8.02896 8.37459Z" fill="#FF00BF"/>
<path d="M8.37452 8.02905C8.50233 7.90346 8.63133 7.77909 8.76153 7.65598L28 28.0001L8.37452 8.02905Z" fill="#FF00BB"/>
<path d="M8.72605 7.68957C8.85603 7.56622 8.98719 7.44413 9.11951 7.3233L28 28.0001L8.72605 7.68957Z" fill="#FF00B7"/>
<path d="M9.08345 7.3563C9.21556 7.23524 9.34883 7.11545 9.48325 6.99695L28 28.0001L9.08345 7.3563Z" fill="#FF00B3"/>
<path d="M9.44662 7.02928C9.58082 6.91055 9.71616 6.79311 9.85262 6.67697L28 28L9.44662 7.02928Z" fill="#FF00AE"/>
<path d="M9.81543 6.7087C9.95169 6.59233 10.0891 6.47726 10.2275 6.36353L28 28.0001L9.81543 6.7087Z" fill="#FF00AA"/>
<path d="M10.1898 6.39457C10.3281 6.28059 10.4674 6.16794 10.6078 6.05664L28 28.0001L10.1898 6.39457Z" fill="#FF00A6"/>
<path d="M10.5696 6.08702C10.7098 5.97547 10.8511 5.86527 10.9935 5.75644L28 28L10.5696 6.08702Z" fill="#FF00A2"/>
<path d="M10.9547 5.78618C11.0968 5.67709 11.24 5.56938 11.3842 5.46304L28 28.0001L10.9547 5.78618Z" fill="#FF009D"/>
<path d="M11.3449 5.49207C11.489 5.38548 11.634 5.28028 11.7801 5.17648L28 28.0001L11.3449 5.49207Z" fill="#FF0099"/>
<path d="M11.7403 5.20482C11.8862 5.10077 12.033 4.99812 12.1809 4.89688L28 28.0001L11.7403 5.20482Z" fill="#FF0095"/>
<path d="M12.1406 4.92453C12.2883 4.82304 12.4369 4.72297 12.5865 4.62433L28 28.0001L12.1406 4.92453Z" fill="#FF0091"/>
<path d="M12.5457 4.65127C12.6952 4.55236 12.8455 4.4549 12.9968 4.35889L28 28.0001L12.5457 4.65127Z" fill="#FF008C"/>
<path d="M12.9556 4.38511C13.1067 4.28883 13.2588 4.19401 13.4117 4.10065L28 28.0001L12.9556 4.38511Z" fill="#FF0088"/>
<path d="M13.37 4.12613C13.5228 4.0325 13.6765 3.94035 13.831 3.84967L28 28.0001L13.37 4.12613Z" fill="#FF0084"/>
<path d="M13.7889 3.87445C13.9433 3.7835 14.0986 3.69404 14.2547 3.60608L28 28.0001L13.7889 3.87445Z" fill="#FF0080"/>
<path d="M14.2121 3.6301C14.3681 3.54187 14.5249 3.45513 14.6825 3.3699L28 28.0001L14.2121 3.6301Z" fill="#FF007B"/>
<path d="M14.6395 3.39319C14.797 3.30769 14.9553 3.2237 15.1144 3.14124L28 28.0001L14.6395 3.39319Z" fill="#FF0077"/>
<path d="M15.071 3.16376C15.23 3.08102 15.3897 2.99981 15.5502 2.92014L28 28.0001L15.071 3.16376Z" fill="#FF0073"/>
<path d="M15.5064 2.94189C15.6668 2.86194 15.8279 2.78353 15.9898 2.70667L28 28.0001L15.5064 2.94189Z" fill="#FF006F"/>
<path d="M15.9457 2.72767C16.1074 2.65053 16.2699 2.57494 16.4331 2.50092L28 28.0001L15.9457 2.72767Z" fill="#FF006A"/>
<path d="M16.3886 2.52113C16.5516 2.44682 16.7154 2.37408 16.8798 2.30292L28 28L16.3886 2.52113Z" fill="#FF0066"/>
<path d="M16.835 2.32237C16.9993 2.25092 17.1643 2.18105 17.33 2.11276L28 28.0001L16.835 2.32237Z" fill="#FF0062"/>
<path d="M17.2848 2.13142C17.4504 2.06284 17.6166 1.99586 17.7834 1.93048L28 28L17.2848 2.13142Z" fill="#FF005E"/>
<path d="M17.7379 1.94837C17.9047 1.8827 18.072 1.81862 18.24 1.75616L28 28.0001L17.7379 1.94837Z" fill="#FF0059"/>
<path d="M18.1942 1.77323C18.362 1.71047 18.5304 1.64933 18.6995 1.58981L28 28L18.1942 1.77323Z" fill="#FF0055"/>
<path d="M18.6534 1.60608C18.8223 1.54627 18.9918 1.48808 19.1618 1.43152L28 28L18.6534 1.60608Z" fill="#FF0051"/>
<path d="M19.1154 1.44698C19.2854 1.39012 19.4558 1.3349 19.6268 1.28131L28 28L19.1154 1.44698Z" fill="#FF004D"/>
<path d="M19.5802 1.29597C19.7511 1.24208 19.9225 1.18984 20.0944 1.13925L28 28L19.5802 1.29597Z" fill="#FF0048"/>
<path d="M20.0476 1.15309C20.2194 1.1022 20.3917 1.05296 20.5644 1.00537L28 28L20.0476 1.15309Z" fill="#FF0044"/>
<path d="M20.5173 1.01841C20.69 0.97052 20.8631 0.924293 21.0367 0.87973L28 28.0001L20.5173 1.01841Z" fill="#FF0040"/>
<path d="M20.9893 0.89192C21.1628 0.847054 21.3367 0.803856 21.511 0.762329L28 28.0001L20.9893 0.89192Z" fill="#FF003C"/>
<path d="M21.4635 0.773695C21.6377 0.731864 21.8124 0.691707 21.9874 0.653229L28 28.0001L21.4635 0.773695Z" fill="#FF0037"/>
<path d="M21.9397 0.663765C22.1146 0.624981 22.2899 0.587878 22.4656 0.55246L28 28.0001L21.9397 0.663765Z" fill="#FF0033"/>
<path d="M22.4177 0.562162C22.5933 0.526438 22.7692 0.492399 22.9454 0.460052L28 28.0001L22.4177 0.562162Z" fill="#FF002F"/>
<path d="M22.8974 0.468921C23.0736 0.436267 23.2501 0.405304 23.4268 0.376038L28 28.0001L22.8974 0.468921Z" fill="#FF002B"/>
<path d="M23.3786 0.384043C23.5554 0.354469 23.7324 0.326591 23.9097 0.300415L28 28L23.3786 0.384043Z" fill="#FF0026"/>
<path d="M23.8613 0.307624C24.0385 0.281139 24.216 0.256355 24.3937 0.233276L28 28.0001L23.8613 0.307624Z" fill="#FF0022"/>
<path d="M24.3452 0.239607C24.5229 0.216218 24.7008 0.194534 24.8788 0.174561L28 28.0001L24.3452 0.239607Z" fill="#FF001E"/>
<path d="M24.8303 0.180052C25.0083 0.159767 25.1866 0.141192 25.3649 0.124329L28 28.0001L24.8303 0.180052Z" fill="#FF001A"/>
<path d="M25.3163 0.128964C25.4947 0.111789 25.6732 0.0963277 25.8518 0.0825806L28 28.0001L25.3163 0.128964Z" fill="#FF0015"/>
<path d="M25.8031 0.0863764C25.9818 0.0723175 26.1605 0.059974 26.3394 0.0493469L28 28.0001L25.8031 0.0863764Z" fill="#FF0011"/>
<path d="M26.2906 0.0522922C26.4695 0.0413531 26.6484 0.0321313 26.8275 0.0246277L28 28.0001L26.2906 0.0522922Z" fill="#FF000D"/>
<path d="M26.7786 0.0267136C26.9577 0.0188976 27.1367 0.0128007 27.3159 0.00842285L28 28.0001L26.7786 0.0267136Z" fill="#FF0009"/>
<path d="M27.267 0.00964525C27.4461 0.00495457 27.6253 0.00198343 27.8045 0.000732422L28 28.0001L27.267 0.00964525Z" fill="#FF0004"/>
<path d="M28 56C43.464 56 56 43.464 56 28C56 12.5361 43.464 3.05176e-05 28 3.05176e-05C12.536 3.05176e-05 0 12.5361 0 28C0 43.464 12.536 56 28 56Z" fill="url(#paint0_radial_10_15)"/>
<defs>
<radialGradient id="paint0_radial_10_15" cx="0" cy="0" r="1" gradientUnits="userSpaceOnUse" gradientTransform="translate(28 28) scale(28 28)">
<stop stop-color="white"/>
<stop offset="1" stop-color="white" stop-opacity="0"/>
</radialGradient>
</defs>
</svg>
